<svg width="40" height="40" viewBox="0 0 40 40" fill="none" xmlns="http://www.w3.org/2000/svg">
<path fill-rule="evenodd" clip-rule="evenodd" d="M19.9997 2.08398C10.1046 2.08398 2.08301 10.1056 2.08301 20.0007C2.08301 29.8958 10.1046 37.9173 19.9997 37.9173C29.8948 37.9173 37.9163 29.8958 37.9163 20.0007C37.9163 10.1056 29.8948 2.08398 19.9997 2.08398ZM12.5504 19.9501C12.0623 19.462 11.2708 19.462 10.7826 19.9501C10.2945 20.4383 10.2945 21.2297 10.7826 21.7178L15.7826 26.7178C16.2708 27.206 17.0623 27.206 17.5503 26.7178L29.217 15.0512C29.7052 14.5631 29.7052 13.7716 29.217 13.2834C28.7288 12.7953 27.9375 12.7953 27.4493 13.2834L16.6665 24.0662L12.5504 19.9501Z" fill="white"/>
</svg>
