<svg width="64" height="64" viewBox="0 0 64 64" fill="none" xmlns="http://www.w3.org/2000/svg">
<path d="M32 0C49.6446 0 64 14.3554 64 32C64 49.6446 49.6446 64 32 64C14.3554 64 7.62939e-06 49.6446 7.62939e-06 32C7.62939e-06 14.3554 14.3554 0 32 0ZM36.9231 41.8461C36.9231 42.499 37.1824 43.1251 37.6441 43.5867C38.1057 44.0483 38.7318 44.3077 39.3846 44.3077C40.0375 44.3077 40.6636 44.0483 41.1252 43.5867C41.5868 43.1251 41.8462 42.499 41.8462 41.8461V22.1538C41.8462 21.501 41.5868 20.8749 41.1252 20.4133C40.6636 19.9516 40.0375 19.6923 39.3846 19.6923C38.7318 19.6923 38.1057 19.9516 37.6441 20.4133C37.1824 20.8749 36.9231 21.501 36.9231 22.1538V41.8461ZM22.1539 41.8461C22.1539 42.499 22.4132 43.1251 22.8748 43.5867C23.3364 44.0483 23.9626 44.3077 24.6154 44.3077C25.2682 44.3077 25.8943 44.0483 26.356 43.5867C26.8176 43.1251 27.0769 42.499 27.0769 41.8461V22.1538C27.0769 21.501 26.8176 20.8749 26.356 20.4133C25.8943 19.9516 25.2682 19.6923 24.6154 19.6923C23.9626 19.6923 23.3364 19.9516 22.8748 20.4133C22.4132 20.8749 22.1539 21.501 22.1539 22.1538V41.8461Z" fill="white"/>
</svg>
